<svg width="24" height="24" viewBox="0 0 24 24" fill="none" xmlns="http://www.w3.org/2000/svg">
<path d="M5.79744 13.6677L8.31692 16.1871C8.15255 16.3573 7.95594 16.4931 7.73855 16.5864C7.52116 16.6798 7.28736 16.729 7.05077 16.731C6.81418 16.7331 6.57955 16.688 6.36057 16.5984C6.1416 16.5088 5.94265 16.3765 5.77536 16.2092C5.60806 16.0419 5.47575 15.843 5.38616 15.624C5.29657 15.405 5.25149 15.1704 5.25354 14.9338C5.2556 14.6972 5.30475 14.4634 5.39813 14.246C5.49152 14.0286 5.62726 13.832 5.79744 13.6677ZM13.6971 18.4117L13.0681 19.0407L3 8.9726L3.62898 8.34362L4.61076 8.48349C5.2825 8.57971 6.11549 8.3748 6.46116 8.02913L9.92233 4.56885C10.9268 3.58326 12.2798 3.03409 13.687 3.04077C15.0943 3.04745 16.442 3.60944 17.4371 4.60452C18.4322 5.59961 18.9942 6.94731 19.0008 8.35456C19.0075 9.76181 18.4583 11.1148 17.4727 12.1193L14.0116 15.5804C13.6659 15.9261 13.461 16.7591 13.5572 17.4308L13.6971 18.4117Z" fill="#DBD9D9"/>
</svg>
