<svg width="25" height="24" viewBox="0 0 25 24" fill="none" xmlns="http://www.w3.org/2000/svg">
<path d="M4.33337 19.1429C4.33337 19.3702 4.42368 19.5882 4.58443 19.7489C4.74517 19.9097 4.96319 20 5.19052 20H19.4762C19.7036 20 19.9216 19.9097 20.0823 19.7489C20.2431 19.5882 20.3334 19.3702 20.3334 19.1429V9.14286H4.33337V19.1429ZM15.7619 10.4286C15.7619 10.3907 15.777 10.3543 15.8038 10.3276C15.8306 10.3008 15.8669 10.2857 15.9048 10.2857H17.3334C17.3713 10.2857 17.4076 10.3008 17.4344 10.3276C17.4612 10.3543 17.4762 10.3907 17.4762 10.4286V11.8571C17.4762 11.895 17.4612 11.9314 17.4344 11.9582C17.4076 11.9849 17.3713 12 17.3334 12H15.9048C15.8669 12 15.8306 11.9849 15.8038 11.9582C15.777 11.9314 15.7619 11.895 15.7619 11.8571V10.4286ZM15.7619 13.2857C15.7619 13.2478 15.777 13.2115 15.8038 13.1847C15.8306 13.1579 15.8669 13.1429 15.9048 13.1429H17.3334C17.3713 13.1429 17.4076 13.1579 17.4344 13.1847C17.4612 13.2115 17.4762 13.2478 17.4762 13.2857V14.7143C17.4762 14.7522 17.4612 14.7885 17.4344 14.8153C17.4076 14.8421 17.3713 14.8571 17.3334 14.8571H15.9048C15.8669 14.8571 15.8306 14.8421 15.8038 14.8153C15.777 14.7885 15.7619 14.7522 15.7619 14.7143V13.2857ZM12.9048 10.4286C12.9048 10.3907 12.9199 10.3543 12.9466 10.3276C12.9734 10.3008 13.0098 10.2857 13.0477 10.2857H14.4762C14.5141 10.2857 14.5505 10.3008 14.5772 10.3276C14.604 10.3543 14.6191 10.3907 14.6191 10.4286V11.8571C14.6191 11.895 14.604 11.9314 14.5772 11.9582C14.5505 11.9849 14.5141 12 14.4762 12H13.0477C13.0098 12 12.9734 11.9849 12.9466 11.9582C12.9199 11.9314 12.9048 11.895 12.9048 11.8571V10.4286ZM12.9048 13.2857C12.9048 13.2478 12.9199 13.2115 12.9466 13.1847C12.9734 13.1579 13.0098 13.1429 13.0477 13.1429H14.4762C14.5141 13.1429 14.5505 13.1579 14.5772 13.1847C14.604 13.2115 14.6191 13.2478 14.6191 13.2857V14.7143C14.6191 14.7522 14.604 14.7885 14.5772 14.8153C14.5505 14.8421 14.5141 14.8571 14.4762 14.8571H13.0477C13.0098 14.8571 12.9734 14.8421 12.9466 14.8153C12.9199 14.7885 12.9048 14.7522 12.9048 14.7143V13.2857ZM12.9048 16.1429C12.9048 16.105 12.9199 16.0686 12.9466 16.0418C12.9734 16.0151 13.0098 16 13.0477 16H14.4762C14.5141 16 14.5505 16.0151 14.5772 16.0418C14.604 16.0686 14.6191 16.105 14.6191 16.1429V17.5714C14.6191 17.6093 14.604 17.6457 14.5772 17.6724C14.5505 17.6992 14.5141 17.7143 14.4762 17.7143H13.0477C13.0098 17.7143 12.9734 17.6992 12.9466 17.6724C12.9199 17.6457 12.9048 17.6093 12.9048 17.5714V16.1429ZM10.0477 13.2857C10.0477 13.2478 10.0627 13.2115 10.0895 13.1847C10.1163 13.1579 10.1526 13.1429 10.1905 13.1429H11.6191C11.657 13.1429 11.6933 13.1579 11.7201 13.1847C11.7469 13.2115 11.7619 13.2478 11.7619 13.2857V14.7143C11.7619 14.7522 11.7469 14.7885 11.7201 14.8153C11.6933 14.8421 11.657 14.8571 11.6191 14.8571H10.1905C10.1526 14.8571 10.1163 14.8421 10.0895 14.8153C10.0627 14.7885 10.0477 14.7522 10.0477 14.7143V13.2857ZM10.0477 16.1429C10.0477 16.105 10.0627 16.0686 10.0895 16.0418C10.1163 16.0151 10.1526 16 10.1905 16H11.6191C11.657 16 11.6933 16.0151 11.7201 16.0418C11.7469 16.0686 11.7619 16.105 11.7619 16.1429V17.5714C11.7619 17.6093 11.7469 17.6457 11.7201 17.6724C11.6933 17.6992 11.657 17.7143 11.6191 17.7143H10.1905C10.1526 17.7143 10.1163 17.6992 10.0895 17.6724C10.0627 17.6457 10.0477 17.6093 10.0477 17.5714V16.1429ZM7.19052 13.2857C7.19052 13.2478 7.20557 13.2115 7.23236 13.1847C7.25915 13.1579 7.29549 13.1429 7.33337 13.1429H8.76195C8.79983 13.1429 8.83617 13.1579 8.86296 13.1847C8.88975 13.2115 8.9048 13.2478 8.9048 13.2857V14.7143C8.9048 14.7522 8.88975 14.7885 8.86296 14.8153C8.83617 14.8421 8.79983 14.8571 8.76195 14.8571H7.33337C7.29549 14.8571 7.25915 14.8421 7.23236 14.8153C7.20557 14.7885 7.19052 14.7522 7.19052 14.7143V13.2857ZM7.19052 16.1429C7.19052 16.105 7.20557 16.0686 7.23236 16.0418C7.25915 16.0151 7.29549 16 7.33337 16H8.76195C8.79983 16 8.83617 16.0151 8.86296 16.0418C8.88975 16.0686 8.9048 16.105 8.9048 16.1429V17.5714C8.9048 17.6093 8.88975 17.6457 8.86296 17.6724C8.83617 17.6992 8.79983 17.7143 8.76195 17.7143H7.33337C7.29549 17.7143 7.25915 17.6992 7.23236 17.6724C7.20557 17.6457 7.19052 17.6093 7.19052 17.5714V16.1429ZM19.4762 5.14286H17.4791V4H15.7648V5.14286H8.90195V4H7.18766V5.14286H5.19052C5.07838 5.14191 4.96717 5.16317 4.86329 5.2054C4.75941 5.24762 4.66491 5.30999 4.58523 5.3889C4.50556 5.46781 4.44229 5.56171 4.39906 5.66518C4.35584 5.76865 4.33351 5.87965 4.33337 5.99179V8H20.3334V5.99179C20.3332 5.87965 20.3109 5.76865 20.2677 5.66518C20.2245 5.56171 20.1612 5.46781 20.0815 5.3889C20.0018 5.30999 19.9073 5.24762 19.8035 5.2054C19.6996 5.16317 19.5884 5.14191 19.4762 5.14286Z" fill="#7E7F7F"/>
</svg>
