<svg width="25" height="24" viewBox="0 0 25 24" fill="none" xmlns="http://www.w3.org/2000/svg">
<path fill-rule="evenodd" clip-rule="evenodd" d="M19.722 11.1033C19.0164 7.16245 17.4388 6.00003 16.5995 6.00003C15.2899 6.00003 14.9539 6.97365 12.1667 7.00645C9.37942 6.97365 9.04341 6.00003 7.73379 6.00003C6.89457 6.00003 5.31614 7.16245 4.61053 11.1033C4.20812 13.353 3.77132 16.7114 4.81213 17.1146C6.10736 17.6162 6.54657 16.3618 7.96899 15.3018C9.41302 14.2274 10.1058 13.9746 12.1667 13.9746C14.2275 13.9746 14.9203 14.2274 16.3643 15.3018C17.7868 16.361 18.226 17.6162 19.5212 17.1146C20.562 16.7114 20.1252 13.3538 19.722 11.1033ZM8.96661 11.6145C8.54225 11.6145 8.13528 11.446 7.83522 11.1459C7.53515 10.8458 7.36658 10.4389 7.36658 10.0145C7.36658 9.59015 7.53515 9.18317 7.83522 8.88311C8.13528 8.58305 8.54225 8.41447 8.96661 8.41447C9.39096 8.41447 9.79794 8.58305 10.098 8.88311C10.3981 9.18317 10.5666 9.59015 10.5666 10.0145C10.5666 10.4389 10.3981 10.8458 10.098 11.1459C9.79794 11.446 9.39096 11.6145 8.96661 11.6145ZM14.5667 11.6145C14.3545 11.6145 14.151 11.5302 14.001 11.3802C13.851 11.2302 13.7667 11.0267 13.7667 10.8145C13.7667 10.6023 13.851 10.3989 14.001 10.2488C14.151 10.0988 14.3545 10.0145 14.5667 10.0145C14.7789 10.0145 14.9824 10.0988 15.1324 10.2488C15.2824 10.3989 15.3667 10.6023 15.3667 10.8145C15.3667 11.0267 15.2824 11.2302 15.1324 11.3802C14.9824 11.5302 14.7789 11.6145 14.5667 11.6145ZM16.1667 10.0145C15.9546 10.0145 15.7511 9.93021 15.601 9.78018C15.451 9.63015 15.3667 9.42666 15.3667 9.21449C15.3667 9.00231 15.451 8.79882 15.601 8.64879C15.7511 8.49876 15.9546 8.41447 16.1667 8.41447C16.3789 8.41447 16.5824 8.49876 16.7324 8.64879C16.8825 8.79882 16.9668 9.00231 16.9668 9.21449C16.9668 9.42666 16.8825 9.63015 16.7324 9.78018C16.5824 9.93021 16.3789 10.0145 16.1667 10.0145Z" fill="#DBD9D9"/>
</svg>
