<svg width="17" height="16" viewBox="0 0 17 16" fill="none" xmlns="http://www.w3.org/2000/svg">
<path d="M13.0113 7.38649C13.3112 7.13927 15.0431 6.06798 15.9915 5.16556C16.7318 4.46037 17.0182 2.61905 15.8793 1.72339C14.3987 0.560233 12.9775 1.78148 12.9775 1.78148C12.9775 1.78148 12.8532 1.09115 11.9886 0.685869C10.8998 0.175217 9.5205 -0.0152643 8.25197 0.000946863C7.02262 0.0158071 5.89054 0.16441 4.88545 0.6575C3.98573 1.09925 3.93169 1.72879 3.93169 1.72879C3.93169 1.72879 2.75098 0.600761 1.30413 1.51669C-0.141371 2.43398 0.273366 4.27124 0.969096 5.04262C1.87557 6.04772 2.96442 6.55972 3.45886 6.92988C3.95195 7.30003 4.42478 7.65263 4.42478 7.97009C4.42478 8.28756 4.28428 8.35781 4.23025 8.34025C4.17756 8.32269 4.08435 8.01332 3.84253 8.14572C3.5129 8.32809 3.61287 9.063 4.30049 9.13325C4.9665 9.20214 5.09349 8.49831 5.09349 8.49831L5.19886 7.81068L6.29177 8.56856L7.49005 9.55609L7.45492 10.4018C7.45492 10.4018 7.40223 11.0543 7.08477 11.619C6.7673 12.1837 6.25664 12.747 6.25664 12.747L6.24043 13.2576L10.6836 13.1523L10.5432 12.6592C10.5432 12.6592 9.97036 12.0296 9.62587 11.3542C9.38 10.8705 9.34082 10.3829 9.34082 10.3829L9.33002 9.16972L11.6361 7.75665C11.6361 7.75665 11.8833 7.95118 11.8482 8.02143C11.813 8.09168 11.8049 8.81172 12.3588 9.07921C12.9059 9.34399 13.3463 9.00896 13.2936 8.54964C13.241 8.09168 12.9586 8.24974 12.8708 8.31999C12.783 8.39023 12.5885 8.4078 12.5358 8.14301C12.4817 7.88093 12.7114 7.63371 13.0113 7.38649ZM1.65942 4.89267L1.13121 3.28506L1.7702 2.44884L2.48619 2.23944C2.48619 2.23944 3.40077 2.92166 3.4332 2.97705C3.46562 3.03244 4.0168 4.16587 4.0168 4.16587L4.7436 6.79749L1.65942 4.89267ZM12.0427 7.00688C12.0535 6.95149 12.7249 4.18748 12.7249 4.18748C12.7249 4.15506 13.1977 3.93486 13.1977 3.89028C13.1977 3.8457 14.0569 2.44748 14.0569 2.44748L15.4889 2.50287L15.7861 3.9227L15.0701 5.10071C15.0715 5.10207 12.0319 7.06092 12.0427 7.00688Z" fill="#DBD9D9"/>
<path d="M16.0914 3.50791C15.9861 2.24885 14.7405 1.94759 14.2285 2.12996C13.7165 2.31234 13.3842 2.65413 13.2707 3.14046C13.1788 3.53358 13.087 3.79566 12.9816 3.83619C12.8654 3.87942 12.7587 3.86186 12.7587 3.86186C12.7587 3.86186 12.7398 3.01077 12.7452 2.66763C12.7587 1.95975 12.9748 1.77872 12.9748 1.77872C12.9748 1.77872 12.9289 1.53961 12.837 1.40721C12.7452 1.27617 12.575 1.10596 12.575 1.10596C12.575 1.10596 12.6141 1.44639 12.4439 1.5261C12.2737 1.6058 12.09 1.48692 12.09 1.48692L12.2602 2.19481C12.2602 2.19481 11.9846 5.72344 11.9589 5.8018C11.9333 5.88015 10.8971 7.67689 10.8971 7.67689C10.8971 7.67689 10.2932 8.24158 10.0055 8.37262C9.71639 8.50366 9.46782 8.84545 8.3533 8.8576C7.23878 8.87111 6.28097 7.99166 6.28097 7.99166L5.32316 7.07302L4.61527 4.98719L4.5099 2.86217L4.55448 2.08944L4.58555 1.76656L4.53557 1.6031C4.53557 1.6031 4.4437 1.69496 4.27349 1.65579C4.10327 1.61661 4.03707 1.39371 4.03707 1.39371C4.03707 1.39371 3.97088 1.49908 3.95872 1.55176C3.94521 1.60445 3.9317 1.72603 3.9317 1.72603C3.9317 1.72603 4.11543 1.91922 4.15461 2.19481C4.19378 2.4704 4.1411 3.61194 3.94521 3.58492C3.74797 3.55925 3.81282 2.60144 3.06575 2.23399C2.41866 1.91517 1.45274 2.01108 1.05827 2.81083C0.665148 3.61059 0.952896 4.55489 2.1863 5.43434C3.4197 6.3138 4.7328 7.05276 4.94085 7.75795C5.18942 8.59688 4.62608 9.09537 4.62608 9.09537C4.62608 9.09537 5.03541 9.03863 5.2367 8.59958C5.30155 8.45773 5.32586 8.25104 5.33532 8.1281C5.80139 8.73602 6.42147 9.25073 7.24284 9.4993C7.55355 9.60602 7.90344 9.66006 8.38978 9.66006C8.46003 9.66006 8.52892 9.65736 8.59782 9.65466C9.16656 9.63439 9.6529 9.52767 10.1244 9.29396C10.7607 8.99945 11.2538 8.54959 11.6347 8.03894C11.6239 8.16052 11.6982 8.46313 11.8401 8.70225C12.0886 9.12239 12.5088 9.14806 12.5088 9.14806C12.5088 9.14806 11.9319 8.80762 12.0495 7.99436C12.167 7.1811 12.7047 6.892 13.5179 6.36784C14.3339 5.84233 16.1955 4.76698 16.0914 3.50791ZM2.7645 5.2925C2.39839 5.03447 1.7567 4.68998 1.49192 4.16447C1.13932 3.46333 1.42572 2.6163 2.09578 2.51228C3.48724 2.29343 3.51291 4.02127 3.60478 4.23066C3.69664 4.44006 3.95872 4.45357 3.95872 4.45357C3.95872 4.45357 3.96818 4.56975 4.006 4.794C4.00735 4.80076 4.0087 4.80616 4.0087 4.81291L4.01276 4.83318C4.03842 4.98583 4.0749 5.17632 4.12624 5.39382L4.13029 5.41003C4.15866 5.53296 4.18838 5.64914 4.21945 5.75587C4.28159 5.98012 4.35724 6.22194 4.45046 6.47051C4.31537 6.37864 3.54128 5.84232 2.7645 5.2925ZM15.37 4.32118C15.0796 4.7913 14.4919 5.14119 14.0583 5.43569C13.499 5.81531 12.6668 6.3854 12.4318 6.54481C12.4858 6.40161 12.5331 6.25976 12.5763 6.12062C12.6466 5.93689 12.7209 5.71264 12.7722 5.47082C12.9073 4.83588 12.9303 4.28065 12.9303 4.28065C12.9303 4.28065 13.2059 4.359 13.3761 4.17528C13.5463 3.99155 13.6098 3.42145 13.7692 3.15262C14.0178 2.73248 14.5163 2.30018 15.2647 2.82434C15.697 3.1283 15.7132 3.76459 15.37 4.32118ZM8.06691 10.0829L8.83018 10.0734C8.83018 10.0734 8.85045 10.907 8.97068 11.5284C9.09091 12.1512 9.25167 12.8429 9.25167 12.8429C9.25167 12.8429 7.69675 13.3643 7.70621 12.8023C7.71566 12.2403 7.94667 11.1461 7.94667 11.1461C7.94667 11.1461 8.08717 9.84243 8.06691 10.0829Z" fill="#DBD9D9"/>
<path d="M6.78608 1.42076C6.78608 1.42076 7.63581 1.32484 8.42611 1.337C9.2164 1.34916 10.0297 1.50452 10.0297 1.50452C10.0297 1.50452 9.98238 4.14964 9.83783 5.63432C9.69463 7.11899 9.13265 8.23081 8.98269 8.54558C8.83814 8.85089 8.73277 9.01435 8.73277 9.01435L7.97085 8.92519L6.65369 6.28006L6.78608 1.42076Z" fill="#DBD9D9"/>
<path d="M5.76901 1.81663C5.76901 1.81663 6.00812 1.69639 6.35531 1.56535C6.67008 1.44647 6.95377 1.41 6.95377 1.41C6.95377 1.41 6.96188 3.16351 6.99025 4.41447C7.01456 5.48035 7.40904 7.22711 7.60087 7.69453C7.7927 8.16195 8.13854 8.87525 8.13854 8.87525C8.13854 8.87525 7.44281 8.77528 7.01456 8.2322C6.78896 7.94581 5.73388 5.73028 5.69741 4.26992C5.66093 2.80956 5.80413 1.78015 5.76901 1.81663Z" fill="#DBD9D9"/>
<path d="M5.37322 2.01916C5.34891 2.09076 5.15842 3.59975 5.45698 4.99932C5.75554 6.39888 6.19729 7.35669 6.48909 7.73631C6.74847 8.07269 6.91734 8.2321 7.01325 8.2321C7.10917 8.2321 6.61878 7.07165 6.39047 6.16112C6.16352 5.25194 6.04328 4.16174 6.01897 3.62407C5.99465 3.08505 5.97168 1.69629 5.97168 1.69629C5.97168 1.69629 5.70825 1.81652 5.64881 1.85165C5.58937 1.88812 5.37322 2.01916 5.37322 2.01916Z" fill="#FFFCFD"/>
<path d="M7.09705 12.7443C7.09705 12.7443 7.61175 11.9067 7.71983 11.2718C7.8279 10.6369 7.88734 10.0749 7.88734 10.0749L8.20616 10.0884C8.20616 10.0884 8.17509 11.0084 8.13861 11.6311C8.10214 12.2539 7.99542 12.8645 7.99542 12.8645L7.09705 12.7443Z" fill="#DBD9D9"/>
<path d="M7.49277 9.55608C7.49277 9.55608 7.73188 9.32237 8.38978 9.32237C9.04769 9.32237 9.33003 9.57499 9.33003 9.57499L9.3476 10.3869C9.3476 10.3869 8.90989 10.2505 8.37763 10.2437C7.93452 10.2383 7.45764 10.4031 7.45764 10.4031L7.49277 9.55608ZM4.61933 1.49236C4.73011 1.38969 5.79194 0.592642 8.30603 0.571027C11.0106 0.54671 12.0251 1.33025 12.0886 1.37348C12.1602 1.42076 12.244 1.63691 12.2089 1.73283C12.1724 1.82874 12.1008 1.86387 11.8982 1.78011C11.6942 1.69635 10.6891 0.962797 8.2709 1.03845C5.94865 1.11005 4.96382 1.81659 4.8598 1.87603C4.77604 1.92331 4.62068 1.93547 4.54908 1.83955C4.47613 1.74499 4.54773 1.55991 4.61933 1.49236ZM12.2089 2.0557C11.8982 2.08002 12.113 4.58194 11.455 6.14903C10.7499 7.82553 9.85014 8.30376 9.88662 8.39968C9.92309 8.49559 10.8039 8.22946 11.3591 7.44187C11.8738 6.71236 12.1846 6.06527 12.3291 5.20337C12.471 4.34148 12.5547 2.02868 12.2089 2.0557ZM4.55314 2.3421C4.47478 2.33805 4.55449 3.58631 4.4275 4.13479C4.37887 4.34553 4.25998 4.38876 4.24783 4.43604C4.23567 4.48333 4.50856 6.08958 4.96652 6.79477C5.40963 7.47699 6.28368 8.32673 6.42688 8.18353C6.57008 8.04033 5.79194 7.56075 5.26643 6.51918C4.96382 5.92207 4.65581 5.02235 4.64365 3.99294C4.63554 3.31207 4.72065 2.35156 4.55314 2.3421Z" fill="#DBD9D9"/>
<path d="M11.6134 14.595L11.6121 12.6646H5.41535C5.43426 12.6646 5.4194 14.2343 5.4167 14.6018H4.53589V16H12.4051V14.6018L11.6134 14.595Z" fill="#DBD9D9"/>
<path d="M7.40111 13.6791C7.24846 13.6723 7.07284 13.7034 7.06608 13.8925C7.05933 14.0816 7.05933 14.6288 7.05933 14.7328C7.05933 14.8368 7.14443 14.9273 7.35788 14.9341C7.57133 14.9408 9.57476 14.9341 9.71526 14.9341C9.85576 14.9341 9.92871 14.8125 9.93411 14.6909C9.94086 14.5693 9.92736 14.0573 9.92736 13.9182C9.92736 13.6872 9.72066 13.6872 9.58017 13.6872C9.42886 13.6845 7.40111 13.6791 7.40111 13.6791Z" fill="#DBD9D9"/>
</svg>
