<svg width="17" height="12" viewBox="0 0 17 12" fill="none" xmlns="http://www.w3.org/2000/svg">
<path fill-rule="evenodd" clip-rule="evenodd" d="M16.0553 5.10332C15.3496 1.16245 13.772 3.05176e-05 12.9328 3.05176e-05C11.6232 3.05176e-05 11.2872 0.973647 8.49992 1.00645C5.71267 0.973647 5.37666 3.05176e-05 4.06704 3.05176e-05C3.22782 3.05176e-05 1.6494 1.16245 0.943783 5.10332C0.541376 7.35296 0.104568 10.7114 1.14539 11.1146C2.44061 11.6162 2.87982 10.3618 4.30224 9.3018C5.74627 8.22738 6.43908 7.97457 8.49992 7.97457C10.5608 7.97457 11.2536 8.22738 12.6976 9.3018C14.12 10.361 14.5592 11.6162 15.8544 11.1146C16.8953 10.7114 16.4585 7.35376 16.0553 5.10332ZM5.29986 5.61453C4.87551 5.61453 4.46853 5.44596 4.16847 5.14589C3.86841 4.84583 3.69983 4.43886 3.69983 4.0145C3.69983 3.59015 3.86841 3.18317 4.16847 2.88311C4.46853 2.58305 4.87551 2.41447 5.29986 2.41447C5.72421 2.41447 6.13119 2.58305 6.43125 2.88311C6.73132 3.18317 6.89989 3.59015 6.89989 4.0145C6.89989 4.43886 6.73132 4.84583 6.43125 5.14589C6.13119 5.44596 5.72421 5.61453 5.29986 5.61453ZM10.9 5.61453C10.6878 5.61453 10.4843 5.53024 10.3343 5.38021C10.1842 5.23018 10.0999 5.02669 10.0999 4.81452C10.0999 4.60234 10.1842 4.39885 10.3343 4.24882C10.4843 4.09879 10.6878 4.0145 10.9 4.0145C11.1121 4.0145 11.3156 4.09879 11.4657 4.24882C11.6157 4.39885 11.7 4.60234 11.7 4.81452C11.7 5.02669 11.6157 5.23018 11.4657 5.38021C11.3156 5.53024 11.1121 5.61453 10.9 5.61453ZM12.5 4.0145C12.2878 4.0145 12.0843 3.93021 11.9343 3.78018C11.7843 3.63015 11.7 3.42666 11.7 3.21449C11.7 3.00231 11.7843 2.79882 11.9343 2.64879C12.0843 2.49876 12.2878 2.41447 12.5 2.41447C12.7122 2.41447 12.9157 2.49876 13.0657 2.64879C13.2157 2.79882 13.3 3.00231 13.3 3.21449C13.3 3.42666 13.2157 3.63015 13.0657 3.78018C12.9157 3.93021 12.7122 4.0145 12.5 4.0145Z" fill="#2E2E2E"/>
</svg>
